<svg xmlns="http://www.w3.org/2000/svg" xmlns:xlink="http://www.w3.org/1999/xlink" width="194.044205" height="51.022705" viewBox="0 0 194.044 51.0227"><path d="M0.89502 27L0.89502 8.39502L7.55371 8.39502L7.55371 15.2124L7.14746 15.2124L6.84516 14.941Q8.24846 13.3779 10.3975 13.3779Q13.397 13.3779 15.251 15.4424Q17.0879 17.4812 17.0879 20.5Q17.0879 23.5184 15.251 25.5639Q13.3966 27.6221 10.3975 27.6221Q7.81794 27.6221 6.37714 25.447L6.71582 25.2227L7.12207 25.2227L7.12207 27.4062L0.89502 27.4062L0.89502 27ZM1.70752 27L1.30127 27L1.30127 26.5938L6.71582 26.5938L6.71582 27L6.30957 27L6.30957 23.8737L7.0545 24.9983Q8.25432 26.8096 10.3975 26.8096Q13.035 26.8096 14.6465 25.021Q16.2754 23.2072 16.2754 20.5Q16.2754 17.7932 14.6465 15.9853Q13.0346 14.1904 10.3975 14.1904Q8.61092 14.1904 7.44976 15.4838L6.74121 16.273L6.74121 8.80127L7.14746 8.80127L7.14746 9.20752L1.30127 9.20752L1.30127 8.80127L1.70752 8.80127L1.70752 27ZM7.52746 21.9179Q7.82174 22.6963 8.66455 22.6963Q9.29924 22.6963 9.74236 22.1636Q10.2134 21.592 10.2134 20.5Q10.2134 19.4091 9.74236 18.8428Q9.29811 18.3037 8.66455 18.3037Q7.82174 18.3037 7.52746 19.0821L7.14746 18.9385L7.55371 18.9385L7.55371 22.0615L7.14746 22.0615L7.52746 21.9179ZM6.74121 22.1357L6.74121 18.8643L6.76746 18.7948Q7.26029 17.4912 8.66455 17.4912Q9.68139 17.4912 10.367 18.3232Q11.0259 19.1153 11.0259 20.5Q11.0259 21.8836 10.367 22.6831Q9.68025 23.5088 8.66455 23.5088Q7.26029 23.5088 6.76746 22.2052L6.74121 22.1357ZM1.30127 27L1.30127 8.80127L7.14746 8.80127L7.14746 15.2124Q8.42969 13.7842 10.3975 13.7842Q13.2158 13.7842 14.9487 15.7139Q16.6816 17.6372 16.6816 20.5Q16.6816 23.3628 14.9487 25.2925Q13.2158 27.2158 10.3975 27.2158Q8.03613 27.2158 6.71582 25.2227L6.71582 27L1.30127 27ZM7.14746 22.0615Q7.54102 23.1025 8.66455 23.1025Q9.48975 23.1025 10.0547 22.4233Q10.6196 21.7378 10.6196 20.5Q10.6196 19.2622 10.0547 18.583Q9.48975 17.8975 8.66455 17.8975Q7.54102 17.8975 7.14746 18.9385L7.14746 22.0615ZM33.4501 14L33.4501 27.4062L27.0009 27.4062L27.0009 24.791L27.4072 24.791L27.7544 25.0019Q26.1631 27.6221 23.078 27.6221Q20.7637 27.6221 19.3306 26.1821Q17.9047 24.7423 17.9047 22.2329L17.9047 13.5938L24.7792 13.5938L24.7792 20.9316Q24.7792 21.7616 24.9721 22.0533Q25.1099 22.2583 25.4584 22.2583Q26.2207 22.2583 26.5881 21.095L26.9755 21.2173L26.5693 21.2173L26.5693 13.5938L33.4501 13.5938L33.4501 14ZM32.6376 14L33.0439 14L33.0439 14.4062L26.9755 14.4062L26.9755 14L27.3818 14L27.3818 21.2799L27.3629 21.3396Q26.8162 23.0708 25.4584 23.0708Q24.677 23.0708 24.2944 22.5014Q23.9667 22.006 23.9667 20.9316L23.9667 14L24.373 14L24.373 14.4062L18.311 14.4062L18.311 14L18.7172 14L18.7172 22.2329Q18.7172 24.4081 19.9065 25.6089Q21.1014 26.8096 23.078 26.8096Q25.7059 26.8096 27.0599 24.5801L27.8134 23.3395L27.8134 27L27.4072 27L27.4072 26.5938L33.0439 26.5938L33.0439 27L32.6376 27L32.6376 14ZM33.0439 14L33.0439 27L27.4072 27L27.4072 24.791Q25.9345 27.2158 23.078 27.2158Q20.9325 27.2158 19.6186 25.8955Q18.311 24.5752 18.311 22.2329L18.311 14L24.373 14L24.373 20.9316Q24.373 21.8838 24.6332 22.2773Q24.8935 22.6646 25.4584 22.6646Q26.5185 22.6646 26.9755 21.2173L26.9755 14L33.0439 14ZM36.5805 25.7324Q34.3664 23.6192 34.3664 20.5Q34.3664 17.3808 36.5805 15.2676Q38.7933 13.1621 42.3581 13.1621Q45.9232 13.1621 48.1293 15.2676Q50.3498 17.3805 50.3498 20.5Q50.3498 23.6195 48.1288 25.7328Q45.9232 27.8379 42.3581 27.8379Q38.7933 27.8379 36.581 25.7328L36.5805 25.7324ZM37.141 25.1442Q39.1181 27.0254 42.3581 27.0254Q45.5977 27.0254 47.5688 25.1442Q49.5373 23.2711 49.5373 20.5Q49.5373 17.7289 47.5683 15.8554Q45.5977 13.9746 42.3581 13.9746Q39.1181 13.9746 37.1415 15.8554Q35.1789 17.7285 35.1789 20.5Q35.1789 23.2715 37.1415 25.1446L37.141 25.1442ZM41.25 19.0425Q40.8156 19.5988 40.8156 20.5Q40.8156 21.4022 41.2512 21.9653Q41.6486 22.4741 42.3581 22.4741Q43.0676 22.4741 43.4661 21.9638Q43.9006 21.4022 43.9006 20.5Q43.9006 19.5988 43.4661 19.0425Q43.0664 18.5259 42.3581 18.5259Q41.6497 18.5259 41.2512 19.0411L41.25 19.0425ZM40.6085 18.5439Q41.251 17.7134 42.3581 17.7134Q43.4651 17.7134 44.1065 18.5424Q44.7131 19.3191 44.7131 20.5Q44.7131 21.6798 44.1065 22.4639Q43.464 23.2866 42.3581 23.2866Q41.2522 23.2866 40.6085 22.4624Q40.0031 21.6798 40.0031 20.5Q40.0031 19.3191 40.6097 18.5424L40.6085 18.5439ZM36.861 25.4385Q34.7726 23.4453 34.7726 20.5Q34.7726 17.5547 36.861 15.5615Q38.9557 13.5684 42.3581 13.5684Q45.7604 13.5684 47.8488 15.5615Q49.9435 17.5547 49.9435 20.5Q49.9435 23.4453 47.8488 25.4385Q45.7604 27.4316 42.3581 27.4316Q38.9557 27.4316 36.861 25.4385ZM40.9299 18.7925Q40.4093 19.459 40.4093 20.5Q40.4093 21.541 40.9299 22.2139Q41.4504 22.8804 42.3581 22.8804Q43.2658 22.8804 43.7863 22.2139Q44.3068 21.541 44.3068 20.5Q44.3068 19.459 43.7863 18.7925Q43.2658 18.1196 42.3581 18.1196Q41.4504 18.1196 40.9299 18.7925ZM66.7086 14L66.7086 27.4062L60.2594 27.4062L60.2594 24.791L60.6656 24.791L61.0129 25.0019Q59.4216 27.6221 56.3365 27.6221Q54.0222 27.6221 52.5891 26.1821Q51.1632 24.7423 51.1632 22.2329L51.1632 13.5938L58.0377 13.5938L58.0377 20.9316Q58.0377 21.7616 58.2306 22.0533Q58.3684 22.2583 58.7169 22.2583Q59.4792 22.2583 59.8466 21.095L60.234 21.2173L59.8277 21.2173L59.8277 13.5938L66.7086 13.5938L66.7086 14ZM65.8961 14L66.3024 14L66.3024 14.4062L60.234 14.4062L60.234 14L60.6402 14L60.6402 21.2799L60.6214 21.3396Q60.0747 23.0708 58.7169 23.0708Q57.9355 23.0708 57.5528 22.5014Q57.2252 22.006 57.2252 20.9316L57.2252 14L57.6315 14L57.6315 14.4062L51.5694 14.4062L51.5694 14L51.9757 14L51.9757 22.2329Q51.9757 24.4081 53.165 25.6089Q54.3599 26.8096 56.3365 26.8096Q58.9644 26.8096 60.3184 24.5801L61.0719 23.3395L61.0719 27L60.6656 27L60.6656 26.5938L66.3024 26.5938L66.3024 27L65.8961 27L65.8961 14ZM66.3024 14L66.3024 27L60.6656 27L60.6656 24.791Q59.193 27.2158 56.3365 27.2158Q54.191 27.2158 52.8771 25.8955Q51.5694 24.5752 51.5694 22.2329L51.5694 14L57.6315 14L57.6315 20.9316Q57.6315 21.8838 57.8917 22.2773Q58.152 22.6646 58.7169 22.6646Q59.777 22.6646 60.234 21.2173L60.234 14L66.3024 14Z" fill="#F69A18" fill-opacity="1.000000" transform="matrix(1 0 0 1 6.01133 7.01135)"/><path d="M23.9814 13.0864L23.9814 11.2139L24.3877 11.2139L24.3877 11.6201L10.5636 11.6201L10.7731 11.0694Q11.6214 8.83968 12.0157 7.58208L12.4033 7.70361L12.3119 8.09944L10.306 7.63606L10.3975 7.24023L10.7894 7.34713Q10.2055 9.48805 9.39314 11.3745L9.2874 11.6201L1.66309 11.6201L1.66309 11.2139L2.06934 11.2139L2.06934 13.0864L1.66309 13.0864L1.66309 12.6802L8.84961 12.6802L8.55089 13.27Q5.54742 19.2002 1.13556 22.1889L0.907715 21.8525L1.20168 21.5721Q1.84762 22.2493 2.41199 23.268L2.05664 23.4648L1.82642 23.1301Q3.79134 21.7787 5.52226 19.8131L6.2334 19.0055L6.2334 28.6128L5.82715 28.6128L5.82715 28.2065L7.75049 28.2065L7.75049 28.6128L7.34424 28.6128L7.34424 19.231L13.6665 19.231L13.6665 31.0249L13.2603 31.0249L13.2603 30.6187L15.1836 30.6187L15.1836 31.0249L14.7773 31.0249L14.7773 19.231L21.4424 19.231L21.4424 26.1118Q21.4424 26.9572 20.4884 27.0125L20.4766 27.0132L20.4648 27.0132Q20.396 27.0132 20.1555 27.015Q18.2636 27.0295 16.8851 26.9876L16.8975 26.5815L17.2608 26.3999Q17.8038 27.4859 17.9271 28.2635L17.5259 28.3271L17.5305 27.9209Q20.9623 27.9599 21.7655 27.6334L21.774 27.6299L21.7828 27.6268Q22.5532 27.3538 22.5532 26.1372L22.5532 17.8218L22.9595 17.8218L22.9595 18.228L14.7773 18.228L14.7773 14.3369L15.1836 14.3369L15.1836 14.7432L13.2603 14.7432L13.2603 14.3369L13.6665 14.3369L13.6665 18.228L6.81098 18.228L7.25912 17.5886Q8.77282 15.4288 9.95355 12.9138L10.0632 12.6802L24.3877 12.6802L24.3877 13.0864L23.9814 13.0864ZM24.7939 13.4927L10.3213 13.4927L10.3213 13.0864L10.689 13.2591Q9.47847 15.8377 7.92448 18.0549L7.5918 17.8218L7.5918 17.4155L13.2603 17.4155L13.2603 17.8218L12.854 17.8218L12.854 13.9307L15.5898 13.9307L15.5898 17.8218L15.1836 17.8218L15.1836 17.4155L23.3657 17.4155L23.3657 26.1372Q23.3657 27.928 22.0541 28.3927L21.9185 28.0098L22.0714 28.3861Q21.1167 28.7742 17.5213 28.7334L17.1783 28.7295L17.1246 28.3908Q17.021 27.737 16.5341 26.7632L16.2299 26.1548L16.9098 26.1755Q18.2729 26.2169 20.1493 26.2026Q20.3929 26.2007 20.4648 26.2007L20.4648 26.6069L20.4413 26.2014Q20.6299 26.1904 20.6299 26.1118L20.6299 19.6372L21.0361 19.6372L21.0361 20.0435L15.1836 20.0435L15.1836 19.6372L15.5898 19.6372L15.5898 31.4312L12.854 31.4312L12.854 19.6372L13.2603 19.6372L13.2603 20.0435L7.75049 20.0435L7.75049 19.6372L8.15674 19.6372L8.15674 29.019L5.4209 29.019L5.4209 20.0815L5.82715 20.0815L6.13204 20.35Q4.33464 22.3911 2.28686 23.7996L1.91816 24.0532L1.70129 23.6617Q1.18756 22.7345 0.613749 22.1329L0.28234 21.7855L0.67987 21.5162Q4.91761 18.6455 7.82606 12.9029L8.18848 13.0864L8.18848 13.4927L1.25684 13.4927L1.25684 10.8076L9.02002 10.8076L9.02002 11.2139L8.64689 11.0532Q9.43666 9.21917 10.0055 7.13334L10.1083 6.75648L12.9222 7.40653L12.791 7.82515Q12.3894 9.1059 11.5325 11.3583L11.1528 11.2139L11.1528 10.8076L24.7939 10.8076L24.7939 13.0864L24.7939 13.4927ZM24.3877 13.0864L10.3213 13.0864C9.54053 14.7495 8.63281 16.3364 7.5918 17.8218L13.2603 17.8218L13.2603 14.3369L15.1836 14.3369L15.1836 17.8218L22.9595 17.8218L22.9595 26.1372C22.9595 27.1782 22.7246 27.7241 21.9185 28.0098C21.1377 28.3271 19.7603 28.3525 17.5259 28.3271C17.4434 27.8066 17.1577 27.1021 16.8975 26.5815C18.5669 26.6323 20.0713 26.6069 20.4648 26.6069C20.9028 26.5815 21.0361 26.48 21.0361 26.1118L21.0361 19.6372L15.1836 19.6372L15.1836 31.0249L13.2603 31.0249L13.2603 19.6372L7.75049 19.6372L7.75049 28.6128L5.82715 28.6128L5.82715 20.0815C4.70361 21.3574 3.45947 22.5 2.05664 23.4648C1.79639 22.9951 1.30127 22.2651 0.907715 21.8525C4.05615 19.7197 6.44922 16.5205 8.18848 13.0864L1.66309 13.0864L1.66309 11.2139L9.02002 11.2139C9.59131 9.88721 10.0356 8.56689 10.3975 7.24023L12.4033 7.70361C12.0352 8.87793 11.5972 10.0459 11.1528 11.2139L24.3877 11.2139L24.3877 13.0864ZM49.3059 13.2543Q48.5913 16.5809 47.9838 18.0762L47.6075 17.9233L47.7325 17.5368L49.2623 18.0319L49.1372 18.4185L48.7596 18.2688Q49.8513 15.514 50.637 11.6285L51.0352 11.709L50.9073 12.0946L49.6632 11.682L49.791 11.2964L49.9171 11.6826L49.5447 11.8042L42.3524 11.8042L42.4779 11.2999Q42.9025 9.59282 43.278 7.43096L43.6783 7.50049L43.6151 7.9018L41.7997 7.61616L41.8628 7.21484L42.2647 7.27403Q41.2413 14.2245 38.7016 17.5722L38.378 17.3267L38.5616 16.9643Q39.7154 17.5491 40.2537 18.0076L39.9903 18.3169L39.6534 18.0898Q40.932 16.1936 41.9656 13.0423L42.0573 12.7627L49.4115 12.7627L49.3059 13.2543ZM48.5115 13.0836L48.9087 13.1689L48.9087 13.5752L42.3516 13.5752L42.3516 13.1689L42.7376 13.2955Q41.6689 16.5542 40.3271 18.544L40.0729 18.921L39.7268 18.6262Q39.262 18.2302 38.1943 17.689L37.7601 17.4689L38.0543 17.0811Q40.4678 13.8996 41.4609 7.15566L41.5207 6.74976L44.1492 7.16333L44.0785 7.57002Q43.698 9.76063 43.2663 11.496L42.8721 11.3979L42.8721 10.9917L49.48 10.9917L49.48 11.3979L49.3539 11.0118L49.792 10.8687L51.5047 11.4367L51.4334 11.7895Q50.6333 15.746 49.5149 18.5681L49.3746 18.9223L47.0666 18.1753L47.2311 17.7704Q47.8118 16.3409 48.5115 13.0836ZM30.2221 13.6991Q32.235 16.3735 34.2243 19.6351L34.3419 19.8279L34.2402 20.0296Q32.4514 23.5774 30.1963 26.0253L29.4912 26.7906L29.4912 12.728L30.2221 13.6991ZM29.5729 14.1877L29.8975 13.9434L30.3037 13.9434L30.3037 25.75L29.8975 25.75L29.5987 25.4747Q31.777 23.1103 33.5147 19.6638L33.8775 19.8467L33.5306 20.0582Q31.562 16.8305 29.5729 14.1877ZM45.3159 15.1304L43.5005 15.1304L43.5005 14.7241L43.9068 14.7241L43.9068 16.4951Q43.9068 25.1091 39.5034 29.7248L38.8033 30.4587L38.8033 28.1938L39.2095 28.1938L39.2095 28.6001L29.4912 28.6001L29.4912 25.3423L30.1172 25.7447Q30.8826 26.2368 31.4606 26.8148L31.1734 27.1021L30.8684 26.8336Q32.8169 24.6199 34.5606 21.3746L34.9108 20.723L35.2728 21.3681Q36.8047 24.0981 37.6608 26.1387L37.2862 26.2959L37.0874 25.9416L38.7505 25.0085L38.9492 25.3628L38.5767 25.5248Q37.5557 23.1774 35.5074 19.9101L35.3895 19.7221L35.484 19.5214Q37.0969 16.094 38.2234 12.298L38.6128 12.4136L38.5359 12.8125L36.7903 12.4761L36.8672 12.0771L37.2578 12.1888Q36.3997 15.1924 35.1329 18.1348L34.837 18.8223L34.4218 18.1995Q32.4901 15.3019 30.9268 13.257L31.2495 13.0103L31.4373 13.3705L29.4912 14.3847L29.4912 10.4966L39.1841 10.4966L39.1841 10.9028L38.7779 10.9028L38.7779 9.13818L39.1841 9.13818L39.1841 9.54443L28.0249 9.54443L28.0249 9.13818L28.4312 9.13818L28.4312 29.9648L28.0249 29.9648L28.0249 29.5586L39.3359 29.5586L39.4506 29.6582Q40.2007 30.3099 40.5913 30.9116L40.2505 31.1328L39.9633 30.8456Q43.104 27.7048 44.2228 23.0774L44.5615 21.6765L45.0043 23.048Q46.4697 27.5872 49.9269 30.6444L49.6577 30.9487L49.2981 30.7597Q49.7554 29.8899 50.6857 29.1733L50.9336 29.4951L50.6758 29.809Q46.1682 26.1064 44.8653 18.8265L44.8578 18.7846L44.8591 18.7421Q44.8615 18.6651 44.8664 18.5126Q44.9097 17.1512 44.9097 16.5205L44.9097 14.7241L45.3159 14.7241L45.3159 15.1304ZM45.7222 14.3179L45.7222 16.5205Q45.7222 17.164 45.6785 18.5384Q45.6738 18.6867 45.6712 18.7677L45.2652 18.7549L45.6651 18.6833Q46.9152 25.6686 51.1915 29.1812L51.5861 29.5053L51.1815 29.817Q50.3919 30.4252 50.0173 31.1378L49.7765 31.596L49.3886 31.2531Q45.7648 28.0485 44.2311 23.2977L44.6177 23.1729L45.0126 23.2683Q43.84 28.1178 40.5378 31.4201L40.183 31.7749L39.9098 31.354Q39.5815 30.8483 38.9177 30.2715L39.1841 29.9648L39.1841 30.3711L27.6187 30.3711L27.6187 8.73193L39.5904 8.73193L39.5904 11.3091L29.8975 11.3091L29.8975 10.9028L30.3037 10.9028L30.3037 13.7148L29.8975 13.7148L29.7097 13.3546L31.3648 12.4921L31.5723 12.7635Q33.1515 14.8294 35.0978 17.7488L34.7598 17.9741L34.3867 17.8135Q35.6328 14.919 36.4766 11.9655L36.5788 11.6078L39.1298 12.0995L39.0023 12.5292Q37.8582 16.3843 36.2192 19.8673L35.8516 19.6943L36.1958 19.4785Q38.2764 22.7974 39.3218 25.2008L39.4682 25.5374L37.0877 26.8731L36.9115 26.4531Q36.0734 24.4552 34.5642 21.7657L34.9185 21.5669L35.2764 21.7592Q33.4885 25.0866 31.4783 27.3705L31.1923 27.6955L30.8861 27.3893Q30.3698 26.873 29.6778 26.4282L29.8975 26.0864L30.3037 26.0864L30.3037 28.1938L29.8975 28.1938L29.8975 27.7876L39.6158 27.7876L39.6158 29.4443L39.2095 29.4443L38.9156 29.1639Q43.0943 24.7837 43.0943 16.4951L43.0943 14.3179L45.3159 14.3179L45.7222 14.3179ZM45.3159 14.7241L45.3159 16.5205C45.3159 17.2251 45.2906 17.9487 45.2652 18.7549C46.1729 23.8267 47.7344 26.8672 50.9336 29.4951C50.4639 29.8569 49.918 30.4536 49.6577 30.9487C47.1885 28.7651 45.6587 26.3975 44.6177 23.1729C43.9639 25.877 42.669 28.7144 40.2505 31.1328C40.0157 30.771 39.5713 30.3013 39.1841 29.9648L28.0249 29.9648L28.0249 9.13818L39.1841 9.13818L39.1841 10.9028L29.8975 10.9028L29.8975 13.7148L31.2495 13.0103C32.4239 14.5464 33.6172 16.2603 34.7598 17.9741C35.5659 16.1016 36.2959 14.0767 36.8672 12.0771L38.6128 12.4136C37.8575 14.959 36.918 17.4282 35.8516 19.6943C37.1529 21.77 38.2701 23.8013 38.9492 25.3628L37.2862 26.2959C36.7403 24.9946 35.9087 23.3315 34.9185 21.5669C33.7759 23.6934 32.5254 25.5659 31.1734 27.1021C30.9131 26.8418 30.3418 26.3721 29.8975 26.0864L29.8975 28.1938L39.2095 28.1938L39.2095 29.4443C43.1577 25.3057 43.5005 20.0562 43.5005 16.4951L43.5005 14.7241L45.3159 14.7241ZM29.8975 13.9434L29.8975 25.75C31.3828 24.1377 32.7349 22.1128 33.8775 19.8467C32.627 17.7964 31.2495 15.7397 29.8975 13.9434ZM48.9087 13.1689L42.3516 13.1689C41.7041 15.1431 40.9234 16.9331 39.9903 18.3169C39.6475 18.0249 38.8413 17.5615 38.378 17.3267C40.1934 14.9336 41.2852 11.1377 41.8628 7.21484L43.6783 7.50049C43.4434 8.85254 43.1831 10.1475 42.8721 11.3979L49.48 11.3979L49.791 11.2964L51.0352 11.709C50.5718 14.0005 49.8164 16.7046 49.1372 18.4185L47.6075 17.9233C48.1026 16.7046 48.5406 14.8828 48.9087 13.1689ZM59.8208 10.7644Q59.1454 9.32563 57.3785 7.52475L57.6685 7.24023L57.8748 7.5902L56.4212 8.44713L56.2149 8.09717L56.5141 7.82232Q58.1701 9.62477 59.024 11.3788L58.6588 11.5566L58.442 11.213L59.9718 10.2482L60.1885 10.5918L59.8208 10.7644ZM60.7088 10.744L58.492 12.1421L58.2935 11.7345Q57.4915 10.0871 55.9157 8.37202L55.576 8.00223L57.736 6.72889L57.9585 6.95572Q59.8222 8.85527 60.5563 10.4192L60.7088 10.744ZM62.7895 21.7462Q62.6403 21.5971 62.0989 21.049Q59.9713 18.8952 59.2094 18.1661L58.9412 17.9094L59.1727 17.6192Q61.2204 15.0523 62.3639 12.2354L62.7403 12.3882L62.5017 12.717L61.4607 11.9616L61.6993 11.6328L61.7816 12.0306L61.3727 12.1152L53.4791 12.1152L53.4791 11.709L53.8853 11.709L53.8853 13.48L53.4791 13.48L53.4791 13.0737L60.9885 13.0737L60.6829 13.6662Q57.9789 18.909 52.9875 21.8595L52.7808 21.5098L53.1018 21.2607Q53.7125 22.0479 54.0544 23.2731L53.6631 23.3823L53.4416 23.0418Q55.1429 21.9346 56.9615 20.1061L57.6558 19.408L57.6558 30.9741L57.2496 30.9741L57.2496 30.5679L59.1475 30.5679L59.1475 30.9741L58.7413 30.9741L58.7413 18.7687L59.4484 19.5484Q61.3028 21.5929 62.1809 22.8079L61.8516 23.0459L61.5301 22.7976L62.7551 21.2107L63.0767 21.459L62.7895 21.7462ZM63.6167 21.4244L61.8409 23.7246L61.5224 23.2839Q60.6707 22.1054 58.8466 20.0942L59.1475 19.8213L59.5538 19.8213L59.5538 31.3804L56.8433 31.3804L56.8433 20.3926L57.2496 20.3926L57.5376 20.6791Q55.6583 22.5686 53.8847 23.7228L53.4207 24.0248L53.2718 23.4915Q52.9728 22.4199 52.4599 21.7588L52.1773 21.3946L52.5741 21.16Q57.364 18.3286 59.9608 13.2938L60.3218 13.48L60.3218 13.8862L53.0728 13.8862L53.0728 11.3027L61.3311 11.3027L61.3311 11.709L61.2488 11.3112L61.7927 11.1986L63.2364 12.2462L63.1167 12.541Q61.929 15.4669 59.8079 18.1259L59.4903 17.8726L59.7712 17.5791Q60.5413 18.3161 62.6769 20.478Q63.2165 21.0243 63.364 21.1717L63.6167 21.4244ZM70.3638 28.0923L70.3638 16.8188L76.3116 16.8188L76.3116 17.2251L75.9053 17.2251L75.9053 15.3525L76.3116 15.3525L76.3116 15.7588L70.3638 15.7588L70.3638 7.21484L70.7701 7.21484L70.7701 7.62109L68.8467 7.62109L68.8467 7.21484L69.253 7.21484L69.253 15.7588L63.2291 15.7588L63.2291 15.3525L63.6353 15.3525L63.6353 17.2251L63.2291 17.2251L63.2291 16.8188L69.253 16.8188L69.253 28.4985L62.0103 28.4985L62.0103 28.0923L62.4166 28.0923L62.4166 29.9902L62.0103 29.9902L62.0103 29.584L76.8575 29.584L76.8575 29.9902L76.4512 29.9902L76.4512 28.0923L76.8575 28.0923L76.8575 28.4985L70.3638 28.4985L70.3638 28.0923ZM71.1763 28.0923L70.7701 28.0923L70.7701 27.686L77.2637 27.686L77.2637 30.3965L61.6041 30.3965L61.6041 27.686L68.8467 27.686L68.8467 28.0923L68.4405 28.0923L68.4405 17.2251L68.8467 17.2251L68.8467 17.6313L62.8228 17.6313L62.8228 14.9463L68.8467 14.9463L68.8467 15.3525L68.4405 15.3525L68.4405 6.80859L71.1763 6.80859L71.1763 15.3525L70.7701 15.3525L70.7701 14.9463L76.7178 14.9463L76.7178 17.6313L70.7701 17.6313L70.7701 17.2251L71.1763 17.2251L71.1763 28.0923ZM70.7701 28.0923L76.8575 28.0923L76.8575 29.9902L62.0103 29.9902L62.0103 28.0923L68.8467 28.0923L68.8467 17.2251L63.2291 17.2251L63.2291 15.3525L68.8467 15.3525L68.8467 7.21484L70.7701 7.21484L70.7701 15.3525L76.3116 15.3525L76.3116 17.2251L70.7701 17.2251L70.7701 28.0923ZM63.0767 21.459L61.8516 23.0459C61.3057 22.2905 60.1378 20.9131 59.1475 19.8213L59.1475 30.9741L57.2496 30.9741L57.2496 20.3926C56.0816 21.5669 54.8629 22.6016 53.6631 23.3823C53.5108 22.8364 53.0665 21.8779 52.7808 21.5098C55.6373 19.8213 58.6588 16.7046 60.3218 13.48L53.4791 13.48L53.4791 11.709L61.3311 11.709L61.6993 11.6328L62.7403 12.3882C61.9595 14.3115 60.817 16.2095 59.4903 17.8726C60.525 18.8628 62.5054 20.8877 63.0767 21.459ZM60.1885 10.5918L58.6588 11.5566C58.189 10.5918 57.148 9.11279 56.2149 8.09717L57.6685 7.24023C58.6588 8.24951 59.7505 9.65869 60.1885 10.5918ZM82.0943 28.3779L82.0943 10.1094L102.001 10.1094L102.001 10.5156L101.594 10.5156L101.594 8.66846L102.001 8.66846L102.001 9.07471L80.6026 9.07471L80.6026 8.66846L81.0089 8.66846L81.0089 30.2251L80.6026 30.2251L80.6026 29.8188L102.648 29.8188L102.648 30.2251L102.242 30.2251L102.242 28.3779L102.648 28.3779L102.648 28.7842L82.0943 28.7842L82.0943 28.3779ZM82.9068 28.3779L82.5006 28.3779L82.5006 27.9717L103.054 27.9717L103.054 30.6313L80.1964 30.6313L80.1964 8.26221L102.407 8.26221L102.407 10.9219L82.5006 10.9219L82.5006 10.5156L82.9068 10.5156L82.9068 28.3779ZM99.2444 25.4386Q97.3522 23.1644 93.4798 19.5997L93.1862 19.3293L93.4513 19.0309Q96.2997 15.8253 98.4012 12.2825L98.7506 12.4897L98.5976 12.8661L96.8013 12.1361L96.9542 11.7598L97.3067 11.9617Q95.3472 15.3835 92.6786 18.3294L92.4069 18.6294L92.1059 18.3587Q88.7526 15.3428 85.8579 13.0159L86.1124 12.6992L86.3746 13.0095L85.0226 14.1521L84.7603 13.8418L85.0182 13.5279Q88.0847 16.0464 91.3784 19.1113L91.6832 19.3949L91.3922 19.6926Q88.0066 23.157 84.1377 25.4764L83.9288 25.1279L84.1531 24.7892Q84.683 25.1401 85.7599 26.2768L85.4649 26.5562L85.2442 26.2151Q88.7916 23.9186 92.1612 20.4217L92.4398 20.1326L92.7321 20.4078Q96.2608 23.7289 98.3367 26.301L98.0206 26.5562L97.7494 26.2537L99.2855 24.8763L99.5567 25.1787L99.2444 25.4386ZM100.119 25.2198L97.9732 27.1443L97.7045 26.8113Q95.6635 24.2825 92.1753 20.9994L92.4537 20.7036L92.7462 20.9855Q89.3117 24.5498 85.6857 26.8972L85.4022 27.0807L85.17 26.8355Q84.1571 25.7663 83.7045 25.4667L83.1672 25.1109L83.7199 24.7795Q87.4989 22.514 90.8111 19.1248L91.1017 19.4087L90.8249 19.7061Q87.5496 16.6584 84.5025 14.1557L84.1257 13.8462L86.1059 12.1728L86.3669 12.3826Q89.2792 14.7237 92.6492 17.7546L92.3775 18.0566L92.0764 17.7839Q94.6859 14.9033 96.6017 11.5579L96.7781 11.2497L99.3408 12.2911L99.1 12.697Q96.9588 16.3068 94.0587 19.5706L93.755 19.3008L94.0301 19.0019Q97.9422 22.6032 99.869 24.9189L100.119 25.2198ZM99.5567 25.1787L98.0206 26.5562C96.7193 24.9438 94.7198 22.8364 92.4537 20.7036C90.2701 22.9697 87.877 24.9946 85.4649 26.5562C85.1222 26.1943 84.3985 25.439 83.9288 25.1279C86.4488 23.6172 88.9181 21.6431 91.1017 19.4087C89.0006 17.4536 86.7852 15.5049 84.7603 13.8418L86.1124 12.6992C88.0865 14.2861 90.2955 16.1841 92.3775 18.0566C94.1485 16.1016 95.7037 13.9434 96.9542 11.7598L98.7506 12.4897C97.316 14.9082 95.6275 17.1934 93.755 19.3008C96.0719 21.4336 98.1729 23.5156 99.5567 25.1787ZM82.5006 28.3779L102.648 28.3779L102.648 30.2251L80.6026 30.2251L80.6026 8.66846L102.001 8.66846L102.001 10.5156L82.5006 10.5156L82.5006 28.3779Z" fill="#F8C101" fill-opacity="1.000000" transform="matrix(1 0 0 1 82.1694 6.01135)"/></svg>